<svg width="32" height="32" viewBox="0 0 32 32" xmlns="http://www.w3.org/2000/svg">
  <!-- Background circle with textured edge -->
  <circle cx="16" cy="16" r="15" fill="white" stroke="#2D5A4A" stroke-width="1" stroke-dasharray="1,1"/>
  
  <!-- Stylized head with bandana -->
  <g fill="#2D5A4A">
    <!-- Head outline - more rounded -->
    <path d="M 12 14 Q 12 11 14 11 Q 16 10 18 11 Q 20 11 20 14 Q 20 17 19 19 Q 17 21 16 21 Q 15 21 13 19 Q 12 17 12 14 Z"/>
    
    <!-- Bandana/head covering -->
    <path d="M 13 13 Q 13 10 15 10 Q 16 9 17 10 Q 19 10 19 13 Q 19 14 18 15 Q 17 16 16 16 Q 16 16 15 16 Q 14 15 13 14 Q 13 13 13 13 Z"/>
    
    <!-- Bandana knot and flowing ends -->
    <path d="M 17 16 Q 18 15 19 16 Q 20 17 19 18 Q 18 19 17 18 Q 16 17 17 16 Z"/>
    <path d="M 19 18 Q 20 19 21 20 Q 22 21 21 22 Q 20 23 19 22 Q 18 21 19 20 Q 19 19 19 18 Z"/>
    <path d="M 19 20 Q 20 21 21 22 Q 22 23 21 24 Q 20 25 19 24 Q 18 23 19 22 Q 19 21 19 20 Z"/>
    
    <!-- Stylized chin/smile -->
    <path d="M 13 19 Q 15 20 16 20 Q 17 20 19 19 Q 18 21 16 21 Q 14 21 13 19 Z"/>
  </g>
</svg>
