<svg width="200" height="200" viewBox="0 0 200 200" xmlns="http://www.w3.org/2000/svg">
  <!-- Background circle with textured edge -->
  <circle cx="100" cy="100" r="95" fill="white" stroke="#2D5A4A" stroke-width="4" stroke-dasharray="4,3" stroke-dashoffset="0"/>
  
  <!-- Stylized head with bandana -->
  <g fill="#2D5A4A">
    <!-- Head outline - more rounded and natural -->
    <path d="M 75 90 Q 75 70 95 70 Q 100 65 105 70 Q 125 70 125 90 Q 125 110 115 130 Q 105 150 100 150 Q 95 150 85 130 Q 75 110 75 90 Z"/>
    
    <!-- Bandana/head covering - more prominent and flowing -->
    <path d="M 80 80 Q 80 60 100 60 Q 100 55 100 60 Q 120 60 120 80 Q 120 85 115 90 Q 110 95 105 100 Q 100 105 100 105 Q 100 105 95 100 Q 90 95 85 90 Q 80 85 80 80 Z"/>
    
    <!-- Bandana knot and flowing ends - more dramatic -->
    <path d="M 105 100 Q 110 95 115 100 Q 120 105 115 110 Q 110 115 105 110 Q 100 105 105 100 Z"/>
    <path d="M 115 110 Q 120 115 125 120 Q 130 125 125 130 Q 120 135 115 130 Q 110 125 115 120 Q 115 115 115 110 Z"/>
    <path d="M 115 120 Q 120 125 125 130 Q 130 135 125 140 Q 120 145 115 140 Q 110 135 115 130 Q 115 125 115 120 Z"/>
    <path d="M 115 130 Q 120 135 125 140 Q 130 145 125 150 Q 120 155 115 150 Q 110 145 115 140 Q 115 135 115 130 Z"/>
    
    <!-- Stylized chin/smile - more pronounced -->
    <path d="M 85 130 Q 95 135 100 135 Q 105 135 115 130 Q 110 140 100 140 Q 90 140 85 130 Z"/>
  </g>
</svg>