<svg width="200" height="200" viewBox="0 0 200 200" xmlns="http://www.w3.org/2000/svg">
  <!-- Background circle with textured edge -->
  <circle cx="100" cy="100" r="95" fill="white" stroke="#2D5A4A" stroke-width="3" stroke-dasharray="3,2" stroke-dashoffset="0"/>
  
  <!-- Stylized head with bandana -->
  <g fill="#2D5A4A">
    <!-- Head outline -->
    <path d="M 70 85 Q 70 65 90 65 Q 100 60 110 65 Q 130 65 130 85 Q 130 105 120 125 Q 110 145 100 145 Q 90 145 80 125 Q 70 105 70 85 Z"/>
    
    <!-- Bandana/head covering -->
    <path d="M 75 75 Q 75 55 95 55 Q 100 50 105 55 Q 125 55 125 75 Q 125 80 120 85 Q 115 90 110 95 Q 105 100 100 100 Q 95 100 90 95 Q 85 90 80 85 Q 75 80 75 75 Z"/>
    
    <!-- Bandana knot and flowing ends -->
    <path d="M 110 95 Q 115 90 120 95 Q 125 100 120 105 Q 115 110 110 105 Q 105 100 110 95 Z"/>
    <path d="M 120 105 Q 125 110 130 115 Q 135 120 130 125 Q 125 130 120 125 Q 115 120 120 115 Q 120 110 120 105 Z"/>
    <path d="M 120 115 Q 125 120 130 125 Q 135 130 130 135 Q 125 140 120 135 Q 115 130 120 125 Q 120 120 120 115 Z"/>
    
    <!-- Stylized chin/smile -->
    <path d="M 85 125 Q 95 130 100 130 Q 105 130 115 125 Q 110 135 100 135 Q 90 135 85 125 Z"/>
  </g>
</svg>