<svg width="1920" height="1080" viewBox="0 0 1920 1080" xmlns="http://www.w3.org/2000/svg">
  <!-- Sky gradient -->
  <defs>
    <linearGradient id="skyGradient" x1="0%" y1="0%" x2="0%" y2="100%">
      <stop offset="0%" style="stop-color:#FFE4B5;stop-opacity:1" />
      <stop offset="50%" style="stop-color:#F0E68C;stop-opacity:1" />
      <stop offset="100%" style="stop-color:#D2B48C;stop-opacity:1" />
    </linearGradient>
    
    <linearGradient id="grassGradient" x1="0%" y1="0%" x2="0%" y2="100%">
      <stop offset="0%" style="stop-color:#9ACD32;stop-opacity:1" />
      <stop offset="50%" style="stop-color:#8FBC8F;stop-opacity:1" />
      <stop offset="100%" style="stop-color:#556B2F;stop-opacity:1" />
    </linearGradient>
    
    <radialGradient id="sunGradient" cx="50%" cy="50%" r="50%">
      <stop offset="0%" style="stop-color:#FFD700;stop-opacity:0.8" />
      <stop offset="100%" style="stop-color:#FF8C00;stop-opacity:0.3" />
    </radialGradient>
  </defs>
  
  <!-- Sky -->
  <rect width="1920" height="720" fill="url(#skyGradient)"/>
  
  <!-- Sun -->
  <circle cx="1600" cy="200" r="120" fill="url(#sunGradient)"/>
  
  <!-- Savanna grass -->
  <rect x="0" y="720" width="1920" height="360" fill="url(#grassGradient)"/>
  
  <!-- Acacia trees silhouette -->
  <g opacity="0.3">
    <path d="M200 600 Q220 500 240 600 Q260 500 280 600 Q270 650 250 700 Q230 650 200 600 Z" fill="#8B4513"/>
    <path d="M500 650 Q520 550 540 650 Q560 550 580 650 Q570 700 550 750 Q530 700 500 650 Z" fill="#8B4513"/>
    <path d="M800 620 Q820 520 840 620 Q860 520 880 620 Q870 670 850 720 Q830 670 800 620 Z" fill="#8B4513"/>
    <path d="M1200 640 Q1220 540 1240 640 Q1260 540 1280 640 Q1270 690 1250 740 Q1230 690 1200 640 Z" fill="#8B4513"/>
    <path d="M1500 610 Q1520 510 1540 610 Q1560 510 1580 610 Q1570 660 1550 710 Q1530 660 1500 610 Z" fill="#8B4513"/>
  </g>
  
  <!-- Distant mountains -->
  <g opacity="0.2">
    <path d="M0 400 L200 300 L400 350 L600 280 L800 320 L1000 250 L1200 300 L1400 200 L1600 250 L1800 180 L1920 200 L1920 720 L0 720 Z" fill="#8B7355"/>
  </g>
  
  <!-- Grass details -->
  <g opacity="0.4">
    <path d="M0 720 Q50 700 100 720 Q150 700 200 720 Q250 700 300 720 Q350 700 400 720 Q450 700 500 720 Q550 700 600 720 Q650 700 700 720 Q750 700 800 720 Q850 700 900 720 Q950 700 1000 720 Q1050 700 1100 720 Q1150 700 1200 720 Q1250 700 1300 720 Q1350 700 1400 720 Q1450 700 1500 720 Q1550 700 1600 720 Q1650 700 1700 720 Q1750 700 1800 720 Q1850 700 1920 720" stroke="#9ACD32" stroke-width="2" fill="none"/>
  </g>
</svg>
